<svg xmlns="http://www.w3.org/2000/svg" viewBox="0.1 0.1 46.8 63.4"><path d="M30.3 63.4c-4.6 0-8-1-10-3.2a10 10 0 0 1-3.1-7c0-1 .2-1.8.5-2.4a4 4 0 0 1 1.5-1.5c.6-.3 1.4-.5 2.3-.5s1.7.2 2.4.5c.6.4 1 .9 1.5 1.5s.5 1.4.5 2.3c0 1.1-.3 2-.8 2.8-.5.7-1.2 1.1-1.9 1.3.6.9 1.6 1.5 3 1.9 1.3.4 2.7.6 4 .6a9 9 0 0 0 5.2-1.6c1.5-1 2.6-2.5 3.3-4.5s1.1-4.2 1.1-6.7c0-2.7-.4-5-1.2-7-.7-2-1.9-3.4-3.4-4.4a9.2 9.2 0 0 0-5-1.4c-1.1 0-2.6.5-4.3 1.5l-3.2 1.6v-1.6l14.4-19.2H17v19.9c0 1.6.4 3 1.2 4S20 42 21.6 42c1.2 0 2.3-.4 3.4-1.2a11.8 11.8 0 0 0 2.7-2.8c.1-.3.2-.4.4-.5a.7.7 0 0 1 .4-.2c.3 0 .6.1 1 .4.3.4.5.8.5 1.3a9.2 9.2 0 0 1-.2 1c-.8 2-2 3.3-3.4 4.3a8.5 8.5 0 0 1-4.8 1.4c-4.3 0-7.3-.8-9-2.5a9.5 9.5 0 0 1-2.4-7V16.5H.1v-3.7h10.1V4.3L8 2V0h6.7l2.6 1.4v11.3h26.3l2.6 2.5L30 31.4a10.8 10.8 0 0 1 3-.8c1.8 0 3.7.6 5.9 1.7 2.2 1 3.9 2.6 5 4.5 1.3 1.9 2 3.7 2.4 5.4.3 1.8.5 3.3.5 4.7 0 3-.6 6-2 8.6-1.3 2.7-3.2 4.7-6 6s-5.5 2-8.5 2z" fill="#2c7df7"/></svg>