<svg xmlns="http://www.w3.org/2000/svg" viewBox="0 0 115 26" fill="#888"><path d="M6.2 4.7a6 6 0 0 1 2-.3c1.1 0 2.2.2 3 .7 1 .4 1.8 1.1 2.5 2.1L16 4.7c-1-1-2-2-3.2-2.5-1.3-.6-2.7-.8-4.4-.8-1.6 0-2.9.2-4 .7a6 6 0 0 0-2.6 2 5 5 0 0 0-.8 3c0 .9.2 1.7.5 2.3A4 4 0 0 0 3.3 11c.7.4 1.7.8 2.7 1l3.7.9a3 3 0 0 1 1.8.7c.3.4.5.8.5 1.3s-.1.8-.4 1.1c-.3.4-.7.6-1.2.8a8 8 0 0 1-6.6-1.2A7 7 0 0 1 2.2 14L0 16.6c.6.7 1.2 1.3 2 1.8.9.5 1.8 1 2.9 1.3a12.6 12.6 0 0 0 7.4-.3c1-.4 2-1 2.6-2a5 5 0 0 0 1-3c0-1.3-.5-2.3-1.3-3.1-.7-.8-2-1.4-3.8-1.8l-3.4-.8c-1-.2-1.6-.5-2-.8a1.8 1.8 0 0 1-.3-2.3c.3-.4.6-.7 1.2-.9Zm23 1.9c-1-.5-2-.8-3-.8a4.8 4.8 0 0 0-4.6 3L21.3 6H18v19.6h3.8v-8.1c.3.6.7 1.1 1.3 1.6.8.7 1.8 1 3 1a5.5 5.5 0 0 0 5.1-3.3 9 9 0 0 0 .8-3.9c0-1.5-.2-2.8-.8-3.8-.5-1.1-1.2-2-2-2.5Zm-1.8 9.5c-.6.8-1.4 1.1-2.4 1.1a2.9 2.9 0 0 1-2.8-2c-.3-.6-.4-1.4-.4-2.3 0-.8.1-1.6.4-2.3.3-.6.6-1 1.1-1.4.5-.4 1-.5 1.7-.5 1 0 1.8.3 2.4 1 .5.8.8 1.8.8 3.2 0 1.4-.3 2.5-.8 3.2Zm16.9-9.5a8.7 8.7 0 0 0-7.4 0c-1 .6-1.9 1.4-2.5 2.5-.6 1-.9 2.3-.9 3.8s.3 2.8 1 3.9a6 6 0 0 0 2.4 2.5 8.7 8.7 0 0 0 7.4 0c1-.6 1.9-1.4 2.5-2.5.6-1 .9-2.4.9-3.9s-.3-2.8-1-3.8c-.5-1-1.3-2-2.4-2.5Zm-.8 8.8a3 3 0 0 1-1.1 1.4 3.5 3.5 0 0 1-3.6 0 3 3 0 0 1-1-1.4c-.3-.7-.5-1.5-.5-2.5s.2-1.7.4-2.4a3 3 0 0 1 1.1-1.4c.5-.4 1.1-.5 1.8-.5a3 3 0 0 1 1.8.5c.5.3.8.8 1 1.4a6.6 6.6 0 0 1 0 4.9ZM57.7 17c-.3.2-.7.2-1.2.2a2 2 0 0 1-1.4-.4c-.3-.3-.5-.8-.5-1.5V9H59V6h-4.4V1.8l-3.8 1V6h-2.5v3h2.5v7c0 1 .2 1.9.6 2.5.4.6 1 1 1.7 1.3a6 6 0 0 0 2.4.4c.7 0 1.4 0 2.1-.3a5 5 0 0 0 1.7-.8l-.6-2.5-1 .5Zm8.1.3c-.5 0-1-.1-1.1-.4-.2-.2-.4-.7-.4-1.3V0h-3.7v16c0 1.4.3 2.5.9 3.1.6.7 1.6 1 3 1l1.3-.1a4 4 0 0 0 1.2-.5l.3-2.4-.8.2h-.7ZM72.1.5c-.4-.3-1-.5-1.7-.5a3 3 0 0 0-1.8.5A2 2 0 0 0 68 2c0 .7.2 1.2.6 1.5.4.4 1 .6 1.8.6.7 0 1.3-.2 1.7-.6.4-.3.6-.8.6-1.5a2 2 0 0 0-.6-1.5Zm.1 5.5h-3.7v13.8h3.7V6Zm15.6-3.2h-.1c-.8 0-1.5.2-2.1.5-.6.4-1 1-1.3 1.6l-.4 1.3c-.9-.3-1.9-.4-3-.4a9 9 0 0 0-3.3.5A5 5 0 0 0 75.4 8c-.5.7-.8 1.6-.8 2.6a4 4 0 0 0 2.2 3.7l-1.1.7c-.7.5-1 1.2-1 2 0 1 .2 1.5.7 2l1.1.7c-.7.1-1.2.3-1.6.7-.6.5-.9 1.1-.9 1.9 0 1 .6 2 1.7 2.6 1 .6 2.8 1 5.2 1a12 12 0 0 0 3.8-.6c1-.3 1.9-.9 2.5-1.6a4 4 0 0 0 1-2.7c0-1.1-.5-2-1.3-2.7-.8-.6-2-1-3.4-1h-4.3c-.6 0-1 0-1.3-.2a1 1 0 0 1-.5-1c0-.2.2-.5.5-.8l.6-.3a11 11 0 0 0 5.8-.3c1-.4 1.6-1 2.2-1.7a4 4 0 0 0 .7-2.4c0-1-.2-1.9-.7-2.6l-1-1c0-.3.2-.6.5-.9a3 3 0 0 1 2-.6h.4L88 2.9h-.2Zm-9.3 17.5h4.7c.7 0 1.2 0 1.5.3.3.2.4.5.4.8 0 .4-.2.6-.5.9-.3.2-.7.5-1.3.6-.7.2-1.5.3-2.4.3-1.2 0-2.2-.2-2.9-.5-.7-.3-1-.7-1-1.2 0-.4.1-.7.4-.9a2 2 0 0 1 1.1-.3Zm4.2-8.2c-.4.4-1 .6-1.8.6-.7 0-1.3-.2-1.8-.6-.5-.4-.7-1-.7-1.7s.2-1.2.7-1.7c.5-.4 1-.6 1.8-.6s1.4.2 1.8.6c.5.5.7 1 .7 1.7s-.2 1.3-.7 1.7Zm17.5-5.8a6.6 6.6 0 0 0-5.2.1 5 5 0 0 0-1.8 2V0h-3.8v19.8h3.8v-7.2c0-1 .2-1.7.5-2.3.3-.5.7-1 1.2-1.2.5-.2 1-.4 1.5-.4.7 0 1.3.3 1.8.7.4.5.7 1.3.7 2.5v8h3.7v-9.1A6 6 0 0 0 102 8c-.4-.8-1-1.3-1.8-1.7Zm14.2 10.2-1 .5c-.3.2-.7.2-1.2.2a2 2 0 0 1-1.4-.4c-.3-.3-.5-.8-.5-1.5V9h4.4V6h-4.4V1.8l-3.7 1V6H104v3h2.6v7c0 1 .2 1.9.5 2.5.4.6 1 1 1.7 1.3a6 6 0 0 0 2.4.4c.8 0 1.5 0 2.1-.3a5 5 0 0 0 1.7-.8l-.6-2.5Z"/></svg>
